<svg width="1400" height="880" viewBox="0 0 1400 880" fill="none" xmlns="http://www.w3.org/2000/svg">
  <defs>
    <linearGradient id="bg" x1="0" y1="0" x2="1400" y2="880" gradientUnits="userSpaceOnUse">
      <stop stop-color="#0B1220"/>
      <stop offset="0.55" stop-color="#0F172A"/>
      <stop offset="1" stop-color="#0A1A2A"/>
    </linearGradient>
    <linearGradient id="card" x1="0" y1="0" x2="1" y2="1">
      <stop stop-color="#FFFFFF" stop-opacity="0.08"/>
      <stop offset="1" stop-color="#FFFFFF" stop-opacity="0.04"/>
    </linearGradient>
    <linearGradient id="photo" x1="0" y1="0" x2="1" y2="1">
      <stop stop-color="#22C55E" stop-opacity="0.35"/>
      <stop offset="0.5" stop-color="#3B82F6" stop-opacity="0.35"/>
      <stop offset="1" stop-color="#F97316" stop-opacity="0.35"/>
    </linearGradient>
    <pattern id="noise" width="110" height="110" patternUnits="userSpaceOnUse">
      <circle cx="10" cy="12" r="1.2" fill="#FFFFFF" fill-opacity="0.08"/>
      <circle cx="54" cy="18" r="1.1" fill="#FFFFFF" fill-opacity="0.05"/>
      <circle cx="96" cy="26" r="1.4" fill="#FFFFFF" fill-opacity="0.06"/>
      <circle cx="22" cy="62" r="1.3" fill="#FFFFFF" fill-opacity="0.05"/>
      <circle cx="72" cy="68" r="1.1" fill="#FFFFFF" fill-opacity="0.06"/>
      <circle cx="36" cy="96" r="1.2" fill="#FFFFFF" fill-opacity="0.05"/>
      <circle cx="92" cy="88" r="1.3" fill="#FFFFFF" fill-opacity="0.06"/>
    </pattern>
    <filter id="shadow" x="-20%" y="-20%" width="140%" height="140%" color-interpolation-filters="sRGB">
      <feDropShadow dx="0" dy="16" stdDeviation="22" flood-color="#000000" flood-opacity="0.45"/>
    </filter>
  </defs>

  <rect x="0" y="0" width="1400" height="880" rx="22" fill="url(#bg)"/>
  <rect x="0" y="0" width="1400" height="880" rx="22" fill="url(#noise)"/>

  <!-- browser chrome -->
  <rect x="64" y="56" width="1272" height="68" rx="18" fill="#0B1020" stroke="#334155" stroke-opacity="0.55"/>
  <circle cx="98" cy="90" r="7" fill="#EF4444" fill-opacity="0.8"/>
  <circle cx="122" cy="90" r="7" fill="#F59E0B" fill-opacity="0.8"/>
  <circle cx="146" cy="90" r="7" fill="#22C55E" fill-opacity="0.8"/>
  <rect x="204" y="76" width="780" height="28" rx="14" fill="#111827" stroke="#475569" stroke-opacity="0.45"/>
  <rect x="220" y="84" width="220" height="12" rx="6" fill="#94A3B8" fill-opacity="0.35"/>
  <rect x="1044" y="80" width="92" height="20" rx="10" fill="#111827" stroke="#475569" stroke-opacity="0.45"/>
  <rect x="1148" y="80" width="92" height="20" rx="10" fill="#111827" stroke="#475569" stroke-opacity="0.45"/>
  <rect x="1252" y="80" width="68" height="20" rx="10" fill="#111827" stroke="#475569" stroke-opacity="0.45"/>

  <!-- page body -->
  <g filter="url(#shadow)">
    <rect x="64" y="144" width="1272" height="680" rx="22" fill="#0B1020" stroke="#334155" stroke-opacity="0.5"/>
  </g>

  <!-- left nav -->
  <rect x="92" y="176" width="260" height="616" rx="18" fill="url(#card)" stroke="#334155" stroke-opacity="0.45"/>
  <rect x="124" y="212" width="196" height="18" rx="9" fill="#E2E8F0" fill-opacity="0.18"/>
  <rect x="124" y="254" width="164" height="14" rx="7" fill="#E2E8F0" fill-opacity="0.12"/>
  <rect x="124" y="282" width="186" height="14" rx="7" fill="#E2E8F0" fill-opacity="0.12"/>
  <rect x="124" y="310" width="138" height="14" rx="7" fill="#E2E8F0" fill-opacity="0.12"/>
  <rect x="124" y="358" width="196" height="12" rx="6" fill="#E2E8F0" fill-opacity="0.1"/>
  <rect x="124" y="386" width="172" height="12" rx="6" fill="#E2E8F0" fill-opacity="0.1"/>
  <rect x="124" y="414" width="186" height="12" rx="6" fill="#E2E8F0" fill-opacity="0.1"/>

  <!-- main content -->
  <rect x="384" y="176" width="924" height="240" rx="22" fill="url(#card)" stroke="#334155" stroke-opacity="0.45"/>
  <rect x="424" y="220" width="330" height="28" rx="14" fill="#E2E8F0" fill-opacity="0.2"/>
  <rect x="424" y="260" width="520" height="14" rx="7" fill="#E2E8F0" fill-opacity="0.12"/>
  <rect x="424" y="284" width="468" height="14" rx="7" fill="#E2E8F0" fill-opacity="0.1"/>
  <rect x="424" y="322" width="120" height="38" rx="19" fill="#3B82F6" fill-opacity="0.75"/>
  <rect x="558" y="322" width="120" height="38" rx="19" fill="#111827" stroke="#475569" stroke-opacity="0.55"/>

  <!-- photo block (dummy) -->
  <rect x="908" y="212" width="360" height="180" rx="18" fill="url(#photo)"/>
  <rect x="908" y="212" width="360" height="180" rx="18" fill="#000000" fill-opacity="0.12"/>
  <path d="M932 344C987 282 1048 306 1110 256C1168 210 1218 236 1260 296V392H932V344Z" fill="#FFFFFF" fill-opacity="0.16"/>
  <circle cx="1214" cy="250" r="18" fill="#FFFFFF" fill-opacity="0.18"/>

  <!-- grid cards -->
  <rect x="384" y="448" width="444" height="170" rx="22" fill="url(#card)" stroke="#334155" stroke-opacity="0.45"/>
  <rect x="424" y="486" width="210" height="16" rx="8" fill="#E2E8F0" fill-opacity="0.15"/>
  <rect x="424" y="516" width="360" height="12" rx="6" fill="#E2E8F0" fill-opacity="0.1"/>
  <rect x="424" y="540" width="314" height="12" rx="6" fill="#E2E8F0" fill-opacity="0.1"/>

  <rect x="864" y="448" width="444" height="170" rx="22" fill="url(#card)" stroke="#334155" stroke-opacity="0.45"/>
  <rect x="904" y="486" width="210" height="16" rx="8" fill="#E2E8F0" fill-opacity="0.15"/>
  <rect x="904" y="516" width="360" height="12" rx="6" fill="#E2E8F0" fill-opacity="0.1"/>
  <rect x="904" y="540" width="314" height="12" rx="6" fill="#E2E8F0" fill-opacity="0.1"/>

  <!-- table -->
  <rect x="384" y="648" width="924" height="144" rx="22" fill="url(#card)" stroke="#334155" stroke-opacity="0.45"/>
  <rect x="424" y="686" width="240" height="16" rx="8" fill="#E2E8F0" fill-opacity="0.15"/>
  <rect x="424" y="716" width="834" height="12" rx="6" fill="#E2E8F0" fill-opacity="0.1"/>
  <rect x="424" y="740" width="786" height="12" rx="6" fill="#E2E8F0" fill-opacity="0.1"/>
  <rect x="424" y="764" width="732" height="12" rx="6" fill="#E2E8F0" fill-opacity="0.1"/>
</svg>
