<svg xmlns="http://www.w3.org/2000/svg" viewBox="0 0 48 48">
  <path fill="#EA4335" d="M24 9.5c3.5 0 6.6 1.2 9 3.6l6-6C35.4 3.7 30.1 1.5 24 1.5 14.6 1.5 6.5 6.9 2.7 14.7l7 5.4C11.4 13.8 17.2 9.5 24 9.5Z" />
  <path fill="#4285F4" d="M46.3 24.5c0-1.6-.1-2.8-.4-4.2H24v8h12.7c-.5 2.7-2 5.1-4.3 6.7l6.6 5.1c3.9-3.6 6.3-8.9 6.3-15.6Z" />
  <path fill="#FBBC05" d="M9.7 28.1c-.5-1.4-.8-2.8-.8-4.3s.3-2.9.8-4.3l-7-5.4C1 17 0 20.4 0 23.8c0 3.4 1 6.8 2.7 9.6l7-5.3Z" />
  <path fill="#34A853" d="M24 46.5c6.1 0 11.3-2 15-5.4l-6.6-5.1c-1.8 1.2-4.3 2-8.4 2-6.8 0-12.6-4.3-14.7-10.3l-7 5.4C6.5 41.1 14.6 46.5 24 46.5Z" />
</svg>

