<svg width="303" height="319" viewBox="0 0 303 319" fill="none" xmlns="http://www.w3.org/2000/svg">
<path d="M150.941 10.2031L280.008 84.7198M150.941 10.2031L21.8748 84.7198M150.941 10.2031V308.27M280.008 84.7198V233.753M280.008 84.7198L21.8748 233.753M280.008 233.753L150.941 308.27M280.008 233.753L21.8748 84.7198M150.941 308.27L21.8748 233.753M21.8748 233.753V84.7198" stroke="#DEE2E9" stroke-width="11.7813"/>
<path d="M261.097 60.1973L269.676 65.1504L280.33 59L302.266 71.665V96.9951L280.33 109.659L258.394 96.9951V85.8438L249.315 80.6035L150.941 23.8066L45.4375 84.7197L285.898 223.55V243.956L156.832 318.473H145.051L36.9004 256.031L30.9004 252.567L21.9365 257.743L0 245.078V219.749L21.9365 207.084L43.873 219.749V232.85L48.6816 235.626L150.94 294.665L256.444 233.753L15.9844 94.9229V74.5166L145.051 0H156.832L261.097 60.1973Z" fill="url(#paint0_linear_324_2482)"/>
<defs>
<linearGradient id="paint0_linear_324_2482" x1="147.996" y1="0" x2="147.996" y2="318.473" gradientUnits="userSpaceOnUse">
<stop stop-color="#263A79"/>
<stop offset="1" stop-color="#4668D0"/>
</linearGradient>
</defs>
</svg>
